<svg width="16" height="16" viewBox="0 0 16 16" fill="none" xmlns="http://www.w3.org/2000/svg">
<path d="M6.77983 4.27997C6.91231 4.13779 6.98443 3.94975 6.981 3.75545C6.97758 3.56114 6.89886 3.37576 6.76145 3.23835C6.62404 3.10093 6.43865 3.02222 6.24435 3.01879C6.05005 3.01537 5.862 3.08749 5.71983 3.21997L2.21983 6.71997C2.07938 6.86059 2.00049 7.05122 2.00049 7.24997C2.00049 7.44872 2.07938 7.63934 2.21983 7.77997L5.71983 11.28C5.862 11.4124 6.05005 11.4846 6.24435 11.4811C6.43865 11.4777 6.62404 11.399 6.76145 11.2616C6.89886 11.1242 6.97758 10.9388 6.981 10.7445C6.98443 10.5502 6.91231 10.3621 6.77983 10.22L4.55983 7.99997H8.24983C9.377 7.99997 10.458 8.44773 11.255 9.24476C12.0521 10.0418 12.4998 11.1228 12.4998 12.25C12.4998 12.4489 12.5788 12.6396 12.7195 12.7803C12.8602 12.921 13.0509 13 13.2498 13C13.4487 13 13.6395 12.921 13.7802 12.7803C13.9208 12.6396 13.9998 12.4489 13.9998 12.25C13.9998 11.4949 13.8511 10.7472 13.5621 10.0495C13.2732 9.35192 12.8496 8.71804 12.3157 8.1841C11.7818 7.65017 11.1479 7.22663 10.4503 6.93766C9.75264 6.6487 9.00493 6.49997 8.24983 6.49997H4.55983L6.77983 4.27997Z" fill="currentColor"/>
</svg>
