<svg width="100%" height="100%" viewBox="0 0 20 20" fill="none" xmlns="http://www.w3.org/2000/svg">
<rect width="20" height="20" rx="10" fill="#F3BA2F"/>
<path d="M5.9085 4.79583L10.0002 2.5L14.0918 4.79583L12.5918 5.64583L10.0002 4.19583L7.41266 5.64583L5.9085 4.79583ZM14.0918 7.69583L12.5918 6.84583L10.0002 8.29583L7.41266 6.84583L5.9085 7.69583V9.39167L8.49183 10.8417V13.7375L10.0002 14.5875L11.5043 13.7375V10.8417L14.0918 9.39167V7.69583ZM14.0918 12.2917V10.5917L12.5918 11.4417V13.1375L14.0918 12.2917ZM15.1627 12.8917L12.5752 14.3375V16.0375L16.6668 13.7375V9.14583L15.1627 9.99167V12.8917ZM13.6585 6.24583L15.1585 7.09583V8.79167L16.6668 7.94583V6.24583L15.1627 5.39583L13.6585 6.25V6.24583ZM8.49183 14.9542V16.65L10.0002 17.5L11.5043 16.65V14.9583L10.0002 15.8042L8.496 14.9542H8.49183ZM5.9085 12.2875L7.4085 13.1375V11.4417L5.9085 10.5917V12.2917V12.2875ZM8.49183 6.24583L10.0002 7.09583L11.5043 6.24583L10.0002 5.39583L8.496 6.25L8.49183 6.24583ZM4.83766 7.09583L6.34183 6.24583L4.84183 5.39583L3.3335 6.25V7.95L4.83766 8.79583V7.09583ZM4.83766 9.99167L3.3335 9.14583V13.7375L7.42516 16.0375V14.3333L4.84183 12.8875V9.9875L4.83766 9.99167Z" fill="white"/>
</svg>
