<svg width="100%" height="100%" viewBox="0 0 41 32" fill="none" xmlns="http://www.w3.org/2000/svg">
<path d="M24.014 19.2797C28.4562 23.1083 26.6816 28.2911 20.0503 30.8558L16.5532 27.8417C20.3014 26.3921 21.3044 23.4627 18.7936 21.2987C16.2828 19.1348 11.2089 18.5557 7.46078 20.0053L3.96369 16.9913C10.595 14.4266 19.5718 15.4511 24.014 19.2797Z" fill="black"/>
<path d="M23.0122 11.7955C19.8222 13.6372 19.8222 16.6233 23.0122 18.4651C26.2022 20.3068 31.3743 20.3069 34.5643 18.4651L39.0075 21.0303C33.3636 24.2888 24.213 24.2888 18.5691 21.0303C12.9252 17.7718 12.9252 12.4887 18.5691 9.23022L23.0122 11.7955Z" fill="black"/>
<path d="M39.008 21.0303V17.953L36.2191 17.8881L34.1224 18.5315L35.6977 21.1828L39.008 21.0303Z" fill="black"/>
<path d="M23.012 11.7944V8.71709L20.2231 8.65219L18.1265 9.29559L19.7017 11.9469L23.012 11.7944Z" fill="black"/>
<path d="M3.9637 16.9926V13.9153L6.75262 13.8504L8.84924 14.4938L7.27401 17.145L3.9637 16.9926Z" fill="black"/>
<path d="M16.554 27.8388V24.7615L19.343 24.6966L21.4396 25.34L19.8643 27.9913L16.554 27.8388Z" fill="black"/>
<mask id="path-7-inside-1_7_11" fill="white">
<path d="M23.0122 8.71735C19.8223 10.5591 19.8222 13.5455 23.0122 15.3873C26.2021 17.2288 31.3739 17.2287 34.564 15.3873L39.0073 17.9517C35.5829 19.9288 30.868 20.7039 26.4282 20.2818C26.7608 23.1591 24.4982 26.0576 20.0503 27.7779L16.5532 24.7632C20.3013 23.3136 21.3042 20.3842 18.7935 18.2203C16.2826 16.0564 11.2085 15.4777 7.46045 16.9273L3.96338 13.9127C7.1454 12.682 10.8676 12.2793 14.3696 12.6148C14.0997 10.296 15.4989 7.9244 18.5688 6.15192L23.0122 8.71735Z"/>
</mask>
<path d="M23.0122 8.71735C19.8223 10.5591 19.8222 13.5455 23.0122 15.3873C26.2021 17.2288 31.3739 17.2287 34.564 15.3873L39.0073 17.9517C35.5829 19.9288 30.868 20.7039 26.4282 20.2818C26.7608 23.1591 24.4982 26.0576 20.0503 27.7779L16.5532 24.7632C20.3013 23.3136 21.3042 20.3842 18.7935 18.2203C16.2826 16.0564 11.2085 15.4777 7.46045 16.9273L3.96338 13.9127C7.1454 12.682 10.8676 12.2793 14.3696 12.6148C14.0997 10.296 15.4989 7.9244 18.5688 6.15192L23.0122 8.71735Z" fill="white"/>
<path d="M23.0122 8.71735L23.2574 9.14194L23.9927 8.71734L23.2574 8.29275L23.0122 8.71735ZM23.0122 15.3873L22.7671 15.8119L22.7671 15.8119L23.0122 15.3873ZM34.564 15.3873L34.809 14.9626L34.5639 14.8212L34.3189 14.9627L34.564 15.3873ZM39.0073 17.9517L39.2525 18.3763L39.988 17.9516L39.2524 17.5271L39.0073 17.9517ZM26.4282 20.2818L26.4746 19.7937L25.8716 19.7364L25.9412 20.3381L26.4282 20.2818ZM20.0503 27.7779L19.7302 28.1492L19.9529 28.3412L20.2271 28.2352L20.0503 27.7779ZM16.5532 24.7632L16.3764 24.306L15.614 24.6009L16.2331 25.1346L16.5532 24.7632ZM18.7935 18.2203L19.1135 17.8489L19.1135 17.8489L18.7935 18.2203ZM7.46045 16.9273L7.14033 17.2987L7.36305 17.4906L7.6373 17.3846L7.46045 16.9273ZM3.96338 13.9127L3.78653 13.4554L3.0241 13.7503L3.64326 14.284L3.96338 13.9127ZM14.3696 12.6148L14.3229 13.1029L14.9268 13.1607L14.8566 12.5581L14.3696 12.6148ZM18.5688 6.15192L18.814 5.72732L18.5688 5.58579L18.3237 5.72733L18.5688 6.15192ZM23.0122 8.71735L22.7671 8.29276C21.0828 9.26522 20.1295 10.6084 20.1295 12.0523C20.1295 13.4962 21.0827 14.8394 22.7671 15.8119L23.0122 15.3873L23.2573 14.9627C21.7517 14.0934 21.11 13.0225 21.11 12.0523C21.11 11.0822 21.7517 10.0112 23.2574 9.14194L23.0122 8.71735ZM23.0122 15.3873L22.7671 15.8119C24.4541 16.7858 26.6343 17.2587 28.788 17.2587C30.9417 17.2587 33.122 16.7857 34.8091 15.8119L34.564 15.3873L34.3189 14.9627C32.8159 15.8302 30.8152 16.2781 28.788 16.2781C26.7608 16.2781 24.7602 15.8303 23.2573 14.9627L23.0122 15.3873ZM34.564 15.3873L34.3189 15.8119L38.7622 18.3764L39.0073 17.9517L39.2524 17.5271L34.809 14.9626L34.564 15.3873ZM39.0073 17.9517L38.7622 17.5271C35.4466 19.4414 30.8395 20.2087 26.4746 19.7937L26.4282 20.2818L26.3818 20.7699C30.8965 21.1991 35.7192 20.4162 39.2525 18.3763L39.0073 17.9517ZM26.4282 20.2818L25.9412 20.3381C26.2353 22.8827 24.2396 25.632 19.8734 27.3206L20.0503 27.7779L20.2271 28.2352C24.7568 26.4833 27.2863 23.4355 26.9153 20.2255L26.4282 20.2818ZM20.0503 27.7779L20.3704 27.4065L16.8733 24.3919L16.5532 24.7632L16.2331 25.1346L19.7302 28.1492L20.0503 27.7779ZM16.5532 24.7632L16.7301 25.2205C18.6783 24.467 20.0143 23.291 20.4842 21.9184C20.9685 20.5042 20.4852 19.0311 19.1135 17.8489L18.7935 18.2203L18.4734 18.5917C19.6125 19.5734 19.8831 20.647 19.5566 21.6008C19.2157 22.5963 18.1761 23.6099 16.3764 24.306L16.5532 24.7632ZM18.7935 18.2203L19.1135 17.8489C17.7595 16.682 15.758 15.9725 13.6465 15.7316C11.5286 15.49 9.24189 15.7127 7.2836 16.47L7.46045 16.9273L7.6373 17.3846C9.42707 16.6924 11.5514 16.4795 13.5353 16.7059C15.5256 16.9329 17.3166 17.5947 18.4734 18.5917L18.7935 18.2203ZM7.46045 16.9273L7.78057 16.556L4.2835 13.5413L3.96338 13.9127L3.64326 14.284L7.14033 17.2987L7.46045 16.9273ZM3.96338 13.9127L4.14023 14.3699C7.24087 13.1707 10.885 12.7735 14.3229 13.1029L14.3696 12.6148L14.4164 12.1268C10.8502 11.7852 7.04993 12.1932 3.78653 13.4554L3.96338 13.9127ZM14.3696 12.6148L14.8566 12.5581C14.6176 10.5047 15.8413 8.29284 18.814 6.57651L18.5688 6.15192L18.3237 5.72733C15.1565 7.55597 13.5818 10.0872 13.8826 12.6715L14.3696 12.6148ZM18.5688 6.15192L18.3237 6.57651L22.7671 9.14194L23.0122 8.71735L23.2574 8.29275L18.814 5.72732L18.5688 6.15192Z" fill="black" mask="url(#path-7-inside-1_7_11)"/>
<path d="M24.014 16.1864C28.4562 20.015 26.6816 25.1978 20.0503 27.7625L16.5532 24.7484C20.3014 23.2988 21.3044 20.3694 18.7936 18.2054C16.2828 16.0415 11.2089 15.4624 7.46078 16.912L3.96369 13.898C10.595 11.3332 19.5718 12.3578 24.014 16.1864Z" fill="black"/>
<path d="M23.0122 8.70216C19.8222 10.5439 19.8222 13.53 23.0122 15.3718C26.2022 17.2135 31.3743 17.2135 34.5643 15.3718L39.0075 17.937C33.3636 21.1955 24.213 21.1955 18.5691 17.937C12.9252 14.6785 12.9252 9.39542 18.5691 6.13692L23.0122 8.70216Z" fill="black"/>
<path d="M39.008 17.937V14.8597L36.2191 14.7948L34.1224 15.4382L35.6977 18.0895L39.008 17.937Z" fill="black"/>
<path d="M23.012 8.70109V5.62378L20.2231 5.55888L18.1265 6.20229L19.7017 8.85355L23.012 8.70109Z" fill="black"/>
<path d="M3.9637 13.8993V10.8219L6.75262 10.757L8.84924 11.4005L7.27401 14.0517L3.9637 13.8993Z" fill="black"/>
<path d="M16.554 24.7455V21.6682L19.343 21.6033L21.4396 22.2467L19.8643 24.898L16.554 24.7455Z" fill="black"/>
<mask id="path-15-inside-2_7_11" fill="white">
<path d="M23.0122 5.62404C19.8223 7.46581 19.8222 10.4522 23.0122 12.294C26.2021 14.1355 31.3739 14.1354 34.564 12.294L39.0073 14.8584C35.5829 16.8355 30.868 17.6106 26.4282 17.1885C26.7608 20.0658 24.4982 22.9643 20.0503 24.6846L16.5532 21.6699C20.3013 20.2203 21.3042 17.2909 18.7935 15.127C16.2826 12.9631 11.2085 12.3844 7.46045 13.834L3.96338 10.8194C7.1454 9.58868 10.8676 9.18603 14.3696 9.5215C14.0997 7.20267 15.4989 4.83109 18.5688 3.05861L23.0122 5.62404Z"/>
</mask>
<path d="M23.0122 5.62404C19.8223 7.46581 19.8222 10.4522 23.0122 12.294C26.2021 14.1355 31.3739 14.1354 34.564 12.294L39.0073 14.8584C35.5829 16.8355 30.868 17.6106 26.4282 17.1885C26.7608 20.0658 24.4982 22.9643 20.0503 24.6846L16.5532 21.6699C20.3013 20.2203 21.3042 17.2909 18.7935 15.127C16.2826 12.9631 11.2085 12.3844 7.46045 13.834L3.96338 10.8194C7.1454 9.58868 10.8676 9.18603 14.3696 9.5215C14.0997 7.20267 15.4989 4.83109 18.5688 3.05861L23.0122 5.62404Z" fill="white"/>
<path d="M23.0122 5.62404L23.2574 6.04863L23.9927 5.62403L23.2574 5.19945L23.0122 5.62404ZM23.0122 12.294L22.7671 12.7186L22.7671 12.7186L23.0122 12.294ZM34.564 12.294L34.809 11.8693L34.5639 11.7279L34.3189 11.8693L34.564 12.294ZM39.0073 14.8584L39.2525 15.283L39.988 14.8583L39.2524 14.4338L39.0073 14.8584ZM26.4282 17.1885L26.4746 16.7004L25.8716 16.6431L25.9412 17.2448L26.4282 17.1885ZM20.0503 24.6846L19.7302 25.0559L19.9529 25.2479L20.2271 25.1419L20.0503 24.6846ZM16.5532 21.6699L16.3764 21.2127L15.614 21.5075L16.2331 22.0413L16.5532 21.6699ZM18.7935 15.127L19.1135 14.7556L19.1135 14.7556L18.7935 15.127ZM7.46045 13.834L7.14033 14.2053L7.36305 14.3973L7.6373 14.2913L7.46045 13.834ZM3.96338 10.8194L3.78653 10.3621L3.0241 10.657L3.64326 11.1907L3.96338 10.8194ZM14.3696 9.5215L14.3229 10.0095L14.9268 10.0674L14.8566 9.46481L14.3696 9.5215ZM18.5688 3.05861L18.814 2.63402L18.5688 2.49248L18.3237 2.63402L18.5688 3.05861ZM23.0122 5.62404L22.7671 5.19945C21.0828 6.17192 20.1295 7.51509 20.1295 8.95901C20.1295 10.4029 21.0827 11.7461 22.7671 12.7186L23.0122 12.294L23.2573 11.8694C21.7517 11.0001 21.11 9.92918 21.11 8.95901C21.11 7.98885 21.7517 6.91793 23.2574 6.04863L23.0122 5.62404ZM23.0122 12.294L22.7671 12.7186C24.4541 13.6925 26.6343 14.1654 28.788 14.1654C30.9417 14.1653 33.122 13.6924 34.8091 12.7186L34.564 12.294L34.3189 11.8693C32.8159 12.7369 30.8152 13.1848 28.788 13.1848C26.7608 13.1848 24.7602 12.737 23.2573 11.8694L23.0122 12.294ZM34.564 12.294L34.3189 12.7186L38.7622 15.283L39.0073 14.8584L39.2524 14.4338L34.809 11.8693L34.564 12.294ZM39.0073 14.8584L38.7622 14.4338C35.4466 16.3481 30.8395 17.1154 26.4746 16.7004L26.4282 17.1885L26.3818 17.6766C30.8965 18.1058 35.7192 17.3229 39.2525 15.283L39.0073 14.8584ZM26.4282 17.1885L25.9412 17.2448C26.2353 19.7894 24.2396 22.5387 19.8734 24.2273L20.0503 24.6846L20.2271 25.1419C24.7568 23.39 27.2863 20.3422 26.9153 17.1322L26.4282 17.1885ZM20.0503 24.6846L20.3704 24.3132L16.8733 21.2986L16.5532 21.6699L16.2331 22.0413L19.7302 25.0559L20.0503 24.6846ZM16.5532 21.6699L16.7301 22.1272C18.6783 21.3737 20.0143 20.1977 20.4842 18.8251C20.9685 17.4109 20.4852 15.9378 19.1135 14.7556L18.7935 15.127L18.4734 15.4983C19.6125 16.4801 19.8831 17.5536 19.5566 18.5075C19.2157 19.503 18.1761 20.5166 16.3764 21.2127L16.5532 21.6699ZM18.7935 15.127L19.1135 14.7556C17.7595 13.5887 15.758 12.8792 13.6465 12.6383C11.5286 12.3967 9.24189 12.6193 7.2836 13.3767L7.46045 13.834L7.6373 14.2913C9.42707 13.5991 11.5514 13.3862 13.5353 13.6126C15.5256 13.8396 17.3166 14.5014 18.4734 15.4984L18.7935 15.127ZM7.46045 13.834L7.78057 13.4627L4.2835 10.448L3.96338 10.8194L3.64326 11.1907L7.14033 14.2053L7.46045 13.834ZM3.96338 10.8194L4.14023 11.2766C7.24087 10.0774 10.885 9.68022 14.3229 10.0095L14.3696 9.5215L14.4164 9.03345C10.8502 8.69184 7.04993 9.09993 3.78653 10.3621L3.96338 10.8194ZM14.3696 9.5215L14.8566 9.46481C14.6176 7.41142 15.8413 5.19953 18.814 3.4832L18.5688 3.05861L18.3237 2.63402C15.1565 4.46266 13.5818 6.99391 13.8826 9.57819L14.3696 9.5215ZM18.5688 3.05861L18.3237 3.4832L22.7671 6.04863L23.0122 5.62404L23.2574 5.19945L18.814 2.63402L18.5688 3.05861Z" fill="black" mask="url(#path-15-inside-2_7_11)"/>
<path d="M24.014 13.1278C28.4562 16.9564 26.6816 22.1391 20.0503 24.7039L16.5532 21.6898C20.3014 20.2402 21.3044 17.3108 18.7936 15.1468C16.2828 12.9829 11.2089 12.4037 7.46078 13.8534L3.96369 10.8393C10.595 8.27463 19.5718 9.2992 24.014 13.1278Z" fill="black"/>
<path d="M23.0122 5.64355C19.8222 7.48531 19.8222 10.4714 23.0122 12.3132C26.2022 14.1549 31.3743 14.1549 34.5643 12.3132L39.0075 14.8784C33.3636 18.1369 24.213 18.1369 18.5691 14.8784C12.9252 11.6199 12.9252 6.33682 18.5691 3.07831L23.0122 5.64355Z" fill="black"/>
<path d="M39.008 14.8784V11.8011L36.2191 11.7362L34.1224 12.3796L35.6977 15.0309L39.008 14.8784Z" fill="black"/>
<path d="M23.012 5.64248V2.56517L20.2231 2.50027L18.1265 3.14368L19.7017 5.79495L23.012 5.64248Z" fill="black"/>
<path d="M3.9637 10.8406V7.76334L6.75262 7.69844L8.84924 8.34184L7.27401 10.9931L3.9637 10.8406Z" fill="black"/>
<path d="M16.554 21.6869V18.6096L19.343 18.5447L21.4396 19.1881L19.8643 21.8393L16.554 21.6869Z" fill="black"/>
<mask id="path-23-inside-3_7_11" fill="white">
<path d="M23.0122 2.56543C19.8223 4.4072 19.8222 7.39361 23.0122 9.23535C26.2021 11.0769 31.3739 11.0768 34.564 9.23535L39.0073 11.7998C35.5829 13.7769 30.868 14.552 26.4282 14.1299C26.7608 17.0072 24.4982 19.9057 20.0503 21.626L16.5532 18.6113C20.3013 17.1617 21.3042 14.2323 18.7935 12.0684C16.2826 9.90447 11.2085 9.3258 7.46045 10.7754L3.96338 7.76074C7.1454 6.53007 10.8676 6.12743 14.3696 6.46289C14.0997 4.14406 15.4989 1.77249 18.5688 0L23.0122 2.56543Z"/>
</mask>
<path d="M23.0122 2.56543C19.8223 4.4072 19.8222 7.39361 23.0122 9.23535C26.2021 11.0769 31.3739 11.0768 34.564 9.23535L39.0073 11.7998C35.5829 13.7769 30.868 14.552 26.4282 14.1299C26.7608 17.0072 24.4982 19.9057 20.0503 21.626L16.5532 18.6113C20.3013 17.1617 21.3042 14.2323 18.7935 12.0684C16.2826 9.90447 11.2085 9.3258 7.46045 10.7754L3.96338 7.76074C7.1454 6.53007 10.8676 6.12743 14.3696 6.46289C14.0997 4.14406 15.4989 1.77249 18.5688 0L23.0122 2.56543Z" fill="white"/>
<path d="M23.0122 2.56543L23.2574 2.99002L23.9927 2.56543L23.2574 2.14084L23.0122 2.56543ZM23.0122 9.23535L22.7671 9.65995L22.7671 9.65995L23.0122 9.23535ZM34.564 9.23535L34.809 8.81072L34.5639 8.66926L34.3189 8.81074L34.564 9.23535ZM39.0073 11.7998L39.2525 12.2244L39.988 11.7997L39.2524 11.3752L39.0073 11.7998ZM26.4282 14.1299L26.4746 13.6418L25.8716 13.5845L25.9412 14.1862L26.4282 14.1299ZM20.0503 21.626L19.7302 21.9973L19.9529 22.1893L20.2271 22.0832L20.0503 21.626ZM16.5532 18.6113L16.3764 18.1541L15.614 18.4489L16.2331 18.9827L16.5532 18.6113ZM18.7935 12.0684L19.1135 11.697L19.1135 11.697L18.7935 12.0684ZM7.46045 10.7754L7.14033 11.1467L7.36305 11.3387L7.6373 11.2327L7.46045 10.7754ZM3.96338 7.76074L3.78653 7.30347L3.0241 7.59834L3.64326 8.13209L3.96338 7.76074ZM14.3696 6.46289L14.3229 6.95094L14.9268 7.00878L14.8566 6.4062L14.3696 6.46289ZM18.5688 0L18.814 -0.424592L18.5688 -0.56613L18.3237 -0.42459L18.5688 0ZM23.0122 2.56543L22.7671 2.14084C21.0828 3.11331 20.1295 4.45648 20.1295 5.9004C20.1295 7.34432 21.0827 8.68749 22.7671 9.65995L23.0122 9.23535L23.2573 8.81076C21.7517 7.94147 21.11 6.87057 21.11 5.90041C21.11 4.93024 21.7517 3.85932 23.2574 2.99002L23.0122 2.56543ZM23.0122 9.23535L22.7671 9.65995C24.4541 10.6339 26.6343 11.1068 28.788 11.1068C30.9417 11.1067 33.122 10.6338 34.8091 9.65996L34.564 9.23535L34.3189 8.81074C32.8159 9.67832 30.8152 10.1262 28.788 10.1262C26.7608 10.1262 24.7602 9.67838 23.2573 8.81075L23.0122 9.23535ZM34.564 9.23535L34.3189 9.65998L38.7622 12.2244L39.0073 11.7998L39.2524 11.3752L34.809 8.81072L34.564 9.23535ZM39.0073 11.7998L38.7622 11.3752C35.4466 13.2895 30.8395 14.0568 26.4746 13.6418L26.4282 14.1299L26.3818 14.618C30.8965 15.0472 35.7192 14.2643 39.2525 12.2244L39.0073 11.7998ZM26.4282 14.1299L25.9412 14.1862C26.2353 16.7307 24.2396 19.4801 19.8734 21.1687L20.0503 21.626L20.2271 22.0832C24.7568 20.3314 27.2863 17.2836 26.9153 14.0736L26.4282 14.1299ZM20.0503 21.626L20.3704 21.2546L16.8733 18.24L16.5532 18.6113L16.2331 18.9827L19.7302 21.9973L20.0503 21.626ZM16.5532 18.6113L16.7301 19.0686C18.6783 18.3151 20.0143 17.1391 20.4842 15.7665C20.9685 14.3523 20.4852 12.8792 19.1135 11.697L18.7935 12.0684L18.4734 12.4397C19.6125 13.4215 19.8831 14.495 19.5566 15.4489C19.2157 16.4444 18.1761 17.458 16.3764 18.1541L16.5532 18.6113ZM18.7935 12.0684L19.1135 11.697C17.7595 10.5301 15.758 9.82057 13.6465 9.5797C11.5286 9.33811 9.24189 9.56073 7.2836 10.3181L7.46045 10.7754L7.6373 11.2327C9.42707 10.5405 11.5514 10.3276 13.5353 10.5539C15.5256 10.781 17.3166 11.4428 18.4734 12.4397L18.7935 12.0684ZM7.46045 10.7754L7.78057 10.404L4.2835 7.3894L3.96338 7.76074L3.64326 8.13209L7.14033 11.1467L7.46045 10.7754ZM3.96338 7.76074L4.14023 8.21801C7.24087 7.01882 10.885 6.62161 14.3229 6.95094L14.3696 6.46289L14.4164 5.97485C10.8502 5.63324 7.04993 6.04132 3.78653 7.30347L3.96338 7.76074ZM14.3696 6.46289L14.8566 6.4062C14.6176 4.35281 15.8413 2.14092 18.814 0.42459L18.5688 0L18.3237 -0.42459C15.1565 1.40405 13.5818 3.9353 13.8826 6.51958L14.3696 6.46289ZM18.5688 0L18.3237 0.424592L22.7671 2.99002L23.0122 2.56543L23.2574 2.14084L18.814 -0.424592L18.5688 0Z" fill="black" mask="url(#path-23-inside-3_7_11)"/>
</svg>
