<svg width="100%" height="100%" viewBox="0 0 140 24" fill="none" xmlns="http://www.w3.org/2000/svg">
<path d="M11.5319 23.82C9.88923 23.82 8.37456 23.532 6.9879 22.956C5.62256 22.3587 4.4279 21.5267 3.4039 20.46C2.3799 19.3933 1.59056 18.1347 1.0359 16.684C0.481231 15.2333 0.203897 13.644 0.203897 11.916C0.203897 10.188 0.481231 8.60933 1.0359 7.18C1.59056 5.75067 2.36923 4.51333 3.3719 3.468C4.3959 2.40133 5.59056 1.58 6.9559 1.004C8.34256 0.427999 9.8679 0.139999 11.5319 0.139999C13.3666 0.139999 15.0199 0.502666 16.4919 1.228C17.9639 1.95333 19.1692 2.97733 20.1079 4.3C21.0679 5.60133 21.6546 7.13733 21.8679 8.908H17.7719C17.5159 7.18 16.8226 5.85733 15.6919 4.94C14.5612 4.00133 13.1852 3.532 11.5639 3.532C10.1346 3.532 8.88656 3.87333 7.8199 4.556C6.75323 5.23867 5.92123 6.20933 5.3239 7.468C4.72656 8.70533 4.4279 10.1773 4.4279 11.884C4.4279 13.6333 4.72656 15.148 5.3239 16.428C5.92123 17.6867 6.7639 18.668 7.8519 19.372C8.9399 20.076 10.1879 20.428 11.5959 20.428C13.1746 20.428 14.5292 19.9693 15.6599 19.052C16.7906 18.1133 17.5052 16.7907 17.8039 15.084H21.9319C21.6759 16.8333 21.0679 18.3693 20.1079 19.692C19.1692 21.0147 17.9639 22.0387 16.4919 22.764C15.0199 23.468 13.3666 23.82 11.5319 23.82ZM25.0701 23.5V7.18H29.0061V11.116H29.1021V23.5H25.0701ZM29.1021 14.988L28.6861 11.116C29.0701 9.72933 29.7208 8.67333 30.6381 7.948C31.5555 7.22267 32.6541 6.86 33.9341 6.86C34.3821 6.86 34.7021 6.90267 34.8941 6.988V10.796C34.7875 10.7533 34.6381 10.732 34.4461 10.732C34.2541 10.7107 34.0195 10.7 33.7421 10.7C32.1848 10.7 31.0221 11.0413 30.2541 11.724C29.4861 12.4067 29.1021 13.4947 29.1021 14.988ZM44.8066 23.82C43.0786 23.82 41.5533 23.4573 40.2306 22.732C38.9293 22.0067 37.916 21.004 37.1906 19.724C36.4653 18.4227 36.1026 16.94 36.1026 15.276C36.1026 13.612 36.4653 12.1507 37.1906 10.892C37.916 9.63333 38.9293 8.652 40.2306 7.948C41.5533 7.22267 43.0786 6.86 44.8066 6.86C46.556 6.86 48.0813 7.22267 49.3826 7.948C50.684 8.652 51.6973 9.63333 52.4226 10.892C53.148 12.1507 53.5106 13.612 53.5106 15.276C53.5106 16.94 53.1373 18.4227 52.3906 19.724C51.6653 21.004 50.652 22.0067 49.3506 22.732C48.0493 23.4573 46.5346 23.82 44.8066 23.82ZM44.8066 20.588C45.66 20.588 46.428 20.3747 47.1106 19.948C47.7933 19.5 48.3266 18.8813 48.7106 18.092C49.0946 17.2813 49.2866 16.332 49.2866 15.244C49.2866 13.644 48.86 12.3853 48.0066 11.468C47.1746 10.5507 46.108 10.092 44.8066 10.092C43.5053 10.092 42.428 10.5507 41.5746 11.468C40.7213 12.3853 40.2946 13.644 40.2946 15.244C40.2946 16.332 40.4866 17.2813 40.8706 18.092C41.276 18.8813 41.8093 19.5 42.4706 19.948C43.1533 20.3747 43.932 20.588 44.8066 20.588ZM62.7789 23.82C60.5176 23.82 58.7149 23.3507 57.3709 22.412C56.0269 21.452 55.2909 20.1293 55.1629 18.444H58.8429C58.9496 19.276 59.3442 19.9053 60.0269 20.332C60.7096 20.7587 61.6269 20.972 62.7789 20.972C63.8242 20.972 64.6029 20.812 65.1149 20.492C65.6482 20.1507 65.9149 19.6707 65.9149 19.052C65.9149 18.604 65.7656 18.2413 65.4669 17.964C65.1682 17.6653 64.6029 17.42 63.7709 17.228L61.1469 16.62C59.3549 16.236 58.0216 15.6387 57.1469 14.828C56.2936 13.996 55.8669 12.9613 55.8669 11.724C55.8669 10.2093 56.4429 9.02533 57.5949 8.172C58.7682 7.29733 60.3789 6.86 62.4269 6.86C64.4536 6.86 66.0749 7.29733 67.2909 8.172C68.5282 9.02533 69.2109 10.2093 69.3389 11.724H65.6589C65.5522 11.0627 65.2109 10.5613 64.6349 10.22C64.0802 9.87867 63.3122 9.708 62.3309 9.708C61.4136 9.708 60.7202 9.85733 60.2509 10.156C59.7816 10.4333 59.5469 10.8493 59.5469 11.404C59.5469 11.8307 59.7282 12.1933 60.0909 12.492C60.4536 12.7693 61.0616 13.0147 61.9149 13.228L64.7309 13.868C66.3309 14.2307 67.5362 14.86 68.3469 15.756C69.1789 16.652 69.5949 17.708 69.5949 18.924C69.5949 20.4813 68.9976 21.6867 67.8029 22.54C66.6082 23.3933 64.9336 23.82 62.7789 23.82ZM78.8726 23.82C76.6113 23.82 74.8086 23.3507 73.4646 22.412C72.1206 21.452 71.3846 20.1293 71.2566 18.444H74.9366C75.0433 19.276 75.438 19.9053 76.1206 20.332C76.8033 20.7587 77.7206 20.972 78.8726 20.972C79.918 20.972 80.6966 20.812 81.2086 20.492C81.742 20.1507 82.0086 19.6707 82.0086 19.052C82.0086 18.604 81.8593 18.2413 81.5606 17.964C81.262 17.6653 80.6966 17.42 79.8646 17.228L77.2406 16.62C75.4486 16.236 74.1153 15.6387 73.2406 14.828C72.3873 13.996 71.9606 12.9613 71.9606 11.724C71.9606 10.2093 72.5366 9.02533 73.6886 8.172C74.862 7.29733 76.4726 6.86 78.5206 6.86C80.5473 6.86 82.1686 7.29733 83.3846 8.172C84.622 9.02533 85.3046 10.2093 85.4326 11.724H81.7526C81.646 11.0627 81.3046 10.5613 80.7286 10.22C80.174 9.87867 79.406 9.708 78.4246 9.708C77.5073 9.708 76.814 9.85733 76.3446 10.156C75.8753 10.4333 75.6406 10.8493 75.6406 11.404C75.6406 11.8307 75.822 12.1933 76.1846 12.492C76.5473 12.7693 77.1553 13.0147 78.0086 13.228L80.8246 13.868C82.4246 14.2307 83.63 14.86 84.4406 15.756C85.2726 16.652 85.6886 17.708 85.6886 18.924C85.6886 20.4813 85.0913 21.6867 83.8966 22.54C82.702 23.3933 81.0273 23.82 78.8726 23.82ZM96.8611 23.948C95.7945 23.948 94.8558 23.7453 94.0451 23.34C93.2558 22.9347 92.6585 22.38 92.2531 21.676C91.8478 20.972 91.6878 20.172 91.7731 19.276H91.9971L91.0371 23.5H86.3331L91.6451 0.459999H96.4451L94.1731 10.38L93.8851 10.284C94.3118 9.23867 95.0158 8.428 95.9971 7.852C96.9998 7.276 98.1731 6.988 99.5171 6.988C101.416 6.988 102.92 7.564 104.029 8.716C105.138 9.868 105.693 11.5107 105.693 13.644C105.693 15.052 105.469 16.3747 105.021 17.612C104.573 18.8493 103.944 19.948 103.133 20.908C102.322 21.8467 101.384 22.5933 100.317 23.148C99.2505 23.6813 98.0985 23.948 96.8611 23.948ZM96.0611 19.948C96.7438 19.948 97.3625 19.788 97.9171 19.468C98.4931 19.148 98.9838 18.7213 99.3891 18.188C99.8158 17.6547 100.136 17.0573 100.349 16.396C100.584 15.7133 100.701 15.02 100.701 14.316C100.701 13.164 100.402 12.268 99.8051 11.628C99.2291 10.988 98.4718 10.668 97.5331 10.668C96.9785 10.668 96.4558 10.7747 95.9651 10.988C95.4958 11.2013 95.0691 11.4893 94.6851 11.852C94.3225 12.2147 94.0025 12.6413 93.7251 13.132C93.4478 13.6013 93.2345 14.1133 93.0851 14.668C92.9571 15.2013 92.8931 15.7453 92.8931 16.3C92.8931 17.452 93.1811 18.348 93.7571 18.988C94.3545 19.628 95.1225 19.948 96.0611 19.948ZM114.963 23.82C113.555 23.82 112.265 23.5533 111.091 23.02C109.939 22.4653 109.022 21.6547 108.339 20.588C107.657 19.5 107.315 18.1667 107.315 16.588C107.315 15.5853 107.454 14.6147 107.731 13.676C108.03 12.716 108.457 11.8307 109.011 11.02C109.566 10.188 110.238 9.46267 111.027 8.844C111.838 8.22533 112.745 7.74533 113.747 7.404C114.75 7.04133 115.849 6.86 117.043 6.86C118.43 6.86 119.699 7.116 120.851 7.628C122.003 8.14 122.921 8.908 123.603 9.932C124.286 10.9347 124.627 12.204 124.627 13.74C124.627 14.4013 124.553 14.9987 124.403 15.532C124.275 16.0653 124.094 16.4813 123.859 16.78H110.003L110.675 13.612H120.755L119.827 14.572C119.955 14.0813 120.009 13.5907 119.987 13.1C119.966 12.588 119.838 12.1293 119.603 11.724C119.39 11.2973 119.059 10.956 118.611 10.7C118.163 10.444 117.577 10.316 116.851 10.316C116.105 10.316 115.454 10.4547 114.899 10.732C114.366 10.988 113.907 11.34 113.523 11.788C113.161 12.236 112.862 12.7373 112.627 13.292C112.393 13.8467 112.222 14.412 112.115 14.988C112.03 15.564 111.987 16.108 111.987 16.62C111.987 17.9853 112.297 18.956 112.915 19.532C113.534 20.0867 114.366 20.364 115.411 20.364C116.286 20.364 117.001 20.2147 117.555 19.916C118.11 19.596 118.537 19.2013 118.835 18.732H123.283C122.558 20.332 121.449 21.58 119.955 22.476C118.483 23.372 116.819 23.82 114.963 23.82ZM132.612 23.852C130.585 23.852 129.145 23.2973 128.292 22.188C127.439 21.0787 127.247 19.4893 127.716 17.42L130.916 3.532L136.132 1.74L132.388 17.868C132.217 18.5933 132.292 19.1373 132.612 19.5C132.932 19.8627 133.455 20.044 134.18 20.044C134.607 20.044 134.969 20.012 135.268 19.948C135.588 19.884 135.887 19.8093 136.164 19.724L135.332 23.372C135.012 23.5213 134.628 23.6387 134.18 23.724C133.753 23.8093 133.231 23.852 132.612 23.852ZM126.18 10.828L127.012 7.18H139.044L138.212 10.828H126.18Z" fill="white"/>
</svg>
