<svg width="100%" height="100%" viewBox="0 0 16 16" fill="none" xmlns="http://www.w3.org/2000/svg">
<path d="M8 0.200195C12.3078 0.200195 15.7998 3.69218 15.7998 8C15.7998 12.3078 12.3078 15.7998 8 15.7998C3.69218 15.7998 0.200195 12.3078 0.200195 8C0.200195 3.69218 3.69218 0.200195 8 0.200195Z" fill="#01040E"/>
<path d="M8 0.200195C12.3078 0.200195 15.7998 3.69218 15.7998 8C15.7998 12.3078 12.3078 15.7998 8 15.7998C3.69218 15.7998 0.200195 12.3078 0.200195 8C0.200195 3.69218 3.69218 0.200195 8 0.200195Z" stroke="#00BFFF" stroke-width="0.4"/>
<path fill-rule="evenodd" clip-rule="evenodd" d="M9.6594 4.36389L4.36353 9.65959V11.6364H6.34021L11.6363 6.3404V4.36406L9.6594 4.36389ZM4.91837 9.88948V11.0814H6.11032L11.0811 6.11069V4.91873H9.88911L4.91837 9.88948Z" fill="#00BFFF"/>
<path d="M5.12855 7.10559L5.52091 6.71322L4.91854 6.11068V4.91872H6.11049L6.71287 5.52127L7.10523 5.1289L6.34021 4.36371H4.36353V6.34039L5.12855 7.10559ZM9.6594 11.6364L8.89645 10.8735L9.28881 10.4811L9.88928 11.0814H11.0811V9.88947L10.4808 9.28917L10.8731 8.8968L11.6361 9.65958V11.6364H9.6594Z" fill="#00BFFF"/>
</svg>
